<?xml version="1.0" encoding="UTF-8"?>
<svg width="300" height="300" viewBox="0 0 265.04739 222.42371" xmlns="http://www.w3.org/2000/svg">
 <defs>
  <filter id="i">
   <feGaussianBlur stdDeviation=".76521"/>
  </filter>
  <linearGradient id="h" x1="473.78" x2="737.82" gradientUnits="userSpaceOnUse">
   <stop stop-color="#81827d" offset="0"/>
   <stop stop-color="#82837e" offset=".27155"/>
   <stop stop-color="#43443f" offset=".6197"/>
   <stop stop-color="#a8a9a4" offset="1"/>
  </linearGradient>
  <linearGradient id="g" x1="394.38" x2="388.75" y1="396.24" y2="372.49" gradientUnits="userSpaceOnUse">
   <stop stop-color="#ee534e" offset="0"/>
   <stop stop-color="#d32a25" offset="1"/>
  </linearGradient>
  <linearGradient id="f" x1="521.5" x2="688.5" y1="436.86" y2="381.36" gradientUnits="userSpaceOnUse">
   <stop stop-color="#c9cbc8" offset="0"/>
   <stop stop-color="#efefef" offset="1"/>
  </linearGradient>
  <radialGradient id="e" cx="315" cy="422.36" r="90.415" fx="287.79" fy="508.42" gradientUnits="userSpaceOnUse">
   <stop stop-color="#a0443f" offset="0"/>
   <stop stop-color="#908d88" offset="1"/>
  </radialGradient>
  <radialGradient id="a" cx="570.88" cy="543.22" r="132.52" gradientTransform="matrix(1.3292 .35615 -.38062 1.4205 31.956 -446.47)" gradientUnits="userSpaceOnUse">
   <stop stop-color="#dbdbd9" offset="0"/>
   <stop stop-color="#aaaba6" offset=".42044"/>
   <stop stop-color="#d1d1cf" offset=".62811"/>
   <stop stop-color="#54554f" offset=".83416"/>
   <stop stop-color="#fff" offset="1"/>
  </radialGradient>
  <radialGradient id="d" cx="604.7" cy="427.39" r="110.02" fx="586.93" fy="673.62" gradientTransform="matrix(1.026 0 0 .7707 -15.754 98.002)" gradientUnits="userSpaceOnUse">
   <stop stop-color="#b5110f" offset="0"/>
   <stop stop-color="#eb2a25" offset=".68179"/>
   <stop stop-color="#fd4a46" offset="1"/>
  </radialGradient>
  <radialGradient id="c" cx="571.13" cy="513.9" r="109.76" gradientTransform="matrix(1.8083 .47113 -.3688 1.4155 -272.1 -506.77)" gradientUnits="userSpaceOnUse">
   <stop stop-color="#eb4946" offset="0"/>
   <stop stop-color="#d62925" offset=".60408"/>
   <stop stop-color="#f46a64" offset="1"/>
  </radialGradient>
  <radialGradient id="b" cx="604.69" cy="455.5" r="111.6" fx="603.98" fy="549.94" gradientTransform="matrix(1.3931 0 0 .56323 -237.69 198.95)" gradientUnits="userSpaceOnUse">
   <stop stop-color="#fe7d7a" offset="0"/>
   <stop stop-color="#fe7d7a" stop-opacity="0" offset="1"/>
  </radialGradient>
 </defs>
 <g transform="translate(-470.75 -333.54)" fill-rule="evenodd">
  <path d="m735.74 460.98c-1.9611 55.031-62.861 97.507-136.02 94.874s-130.88-49.379-128.92-104.41c0.0442-1.2391 0.11819-14.615 0.22158-15.841 4.4882-53.223 64.286-81.607 135.8-79.033 70.915 2.5523 127.32 30.478 128.93 83.292 0.0511 1.6736 0.0471 19.427-0.0131 21.118z" fill="url(#h)"/>
  <path d="m735.74 438.98c-1.9611 55.031-62.861 97.507-136.02 94.874s-130.88-49.379-128.92-104.41 62.861-97.507 136.02-94.874 130.88 49.379 128.92 104.41z" fill="url(#a)"/>
  <path d="m735.74 438.98c-1.9611 55.031-62.861 97.507-136.02 94.874s-130.88-49.379-128.92-104.41 62.861-97.507 136.02-94.874 130.88 49.379 128.92 104.41z" fill="url(#a)"/>
  <path d="m686.78 358.09c27.314 19.275 42.835 49.83 43.969 79.875 1.0919 28.936-20.222 52.558-46.385 69.712-22.69 14.878-47.665 25.386-81.646 24.163-30.299-1.0905-66.953-11.729-88.812-25.406 22.695 15.974 52.661 26.213 85.812 27.406 73.162 2.6332 134.07-39.844 136.03-94.875 1.1469-32.184-18.139-61.525-48.969-80.875z" fill="#fbfbfb" opacity=".58744"/>
  <path transform="matrix(1.3734 0 0 1.0444 171.13 -14.985)" d="m400 422.36c0 46.944-38.056 85-85 85s-85-38.056-85-85 38.056-85 85-85 85 38.056 85 85z" fill="url(#e)"/>
  <path d="m714.39 431.16c-1.6616 45.578-52.474 82.957-114.46 80.776s-106.85-39.382-105.19-84.96c0.0221-0.60514 0.23079-12.816 0.26896-13.418 2.8367-44.735 49.775-68.827 110.94-66.675 60.214 2.1184 107.65 27.527 108.78 71.275 0.0333 1.2903-0.28597 11.696-0.33358 13.002z" fill="#330706"/>
  <path d="m714.39 429.16c-1.6616 45.578-52.474 82.957-114.46 80.776s-106.85-39.382-105.19-84.96c0.0221-0.60514 0.23079-12.816 0.26896-13.418 2.8367-44.735 49.775-68.827 110.94-66.675 60.214 2.1184 107.65 27.527 108.78 71.275 0.0333 1.2903-0.28597 11.696-0.33358 13.002z" fill="url(#d)"/>
  <path d="m714.42 420.12c-1.6242 45.578-52.063 80.758-112.66 78.578s-108.4-40.897-106.78-86.475 52.063-80.758 112.66-78.578 108.4 40.897 106.78 86.475z" fill="url(#c)"/>
  <g transform="translate(280)">
   <path d="m276.31 436.44-1.5625 3.6562 1.25-0.40625 13.375-4.2812 1.2812-0.4375 0.21875-0.0937-4.125-2.125 0.125 0.28125-10.562 3.4062z" fill="#d63d38"/>
   <path d="m269.97 423.22-2.1875 3.6875 0.5625-0.1875 5.8438 12.188 0.5625 1.1875 1.5625-3.6562v-0.0312l-5.8438-12.188-0.5-1z" fill="#d32a27"/>
   <path d="m251.75 429.28 4.0625 1.6562 11.969-4.0312 2.1875-3.6875-0.0937-0.1875-1.25 0.40625-15.344 5.1875-1.5938 0.53125 0.0625 0.125z" fill="#cf3732"/>
   <path d="m258.28 443.28 3.7188 1.7812 0.375-0.15625-0.65625-1.4062-5.9062-12.531v-0.0312l-4.0625-1.6562 0.65625 1.4062 5.875 12.594z" fill="#c32b28"/>
   <path d="m247.62 448.22v0.0312l-1.4375 3.875 1.2188-0.53125 13.562-6.0625 1.0312-0.46875-3.7188-1.7812 0.0625 0.125-10.719 4.8125z" fill="#c62b26"/>
   <path d="m233.72 416.88c-1.782-0.61124-3.1631-1.137-4.0938-1.5625l0.625 1.4062 15.156 34.125 0.625 1.3438 0.15625-0.0625 1.4375-3.875v-0.0312l-0.0937 0.0312-13.938-31.312 0.125-0.0625z" fill="#d12c28"/>
   <path d="m244.47 412.66 1.5312-3.625-0.0937-0.1875-1.2812 0.53125-13.562 5.3438-1.4688 0.5625 0.0312 0.0312c0.93061 0.42554 2.3118 0.95126 4.0938 1.5625l10.75-4.2188z" fill="#cf2d2a"/>
   <path d="m250.28 424 1.4062-3.75-0.0312 0.0312-5.125-10.188-0.53125-1.0625-1.5312 3.625 5.0938 10.188 0.59375 1.2188 0.125-0.0625z" fill="#c22e2a"/>
   <path d="m267.62 417.44-3.875-2.0625 0.125 0.25-12.188 4.625-1.4062 3.75 1.1562-0.40625 15-5.7188 1.1875-0.4375z" fill="#df3a36"/>
   <path d="m263.03 406.66-4.0938-1.75 0.59375 1.2812 4.2188 9.1875 3.875 2.0625 0.3125-0.125-0.6875-1.4688-4.2188-9.1875z" fill="#dc3733"/>
   <path d="m274.9375,399.15625-.0312-.0937-1.28125.46875-13.21875,4.625-1.5625.5625 .0937.1875 4.09375,1.75-.0937-.21875 10.375-3.625 1.625-3.65625z" fill="#dd3834"/>
   <path d="m274.94 399.16-1.625 3.6562v0.0312l13.438 29.906 4.125 2.125-0.21875 0.0937 0.3125-0.0937-0.65625-1.5312-14.844-33.031-0.53125-1.1562z" fill="#bd2822"/>
   <path d="m297.59 399.41 4.6562 1.625 21.031-5.9688 1.875-0.53125-0.375-0.65625 0.125 0.53125-4.3438-1.7188-21.344 6.0938-1.6875 0.46875 0.0625 0.15625z" fill="#e55650"/>
   <path d="m301.28 407.09 1.5312-3.7812-1.0312-2.1562 0.46875-0.125-4.6562-1.625 0.6875 1.4688 2.5 5.1875 0.5 1.0312z" fill="#bf2621"/>
   <path d="m322,401 1.25-3.59375-1,.3125-19.3125,5.875-.125-.28125-1.53125,3.78125 .0625.125 1.25-.375 19.375-5.90625 .03125.0625z" fill="#ef4c47"/>
   <path d="m324.09 404.78 4.3438 1.8125-0.3125-0.71875-0.375-0.65625-3.75-6.7812-0.59375-1.0938-0.15625 0.0625-1.25 3.5938 2.0938 3.7812z" fill="#bf2621"/>
   <path d="m303.03 410.84 4.6562 1.8438 19.156-5.3125 1.8125-0.5-0.53125-1 0.3125 0.71875-4.3438-1.8125 0.125 0.21875-19.438 5.375-1.75 0.46875z" fill="#e85752"/>
   <path d="m308.3125,420.125 1.28125-3.5-.0937.0312-2.09375-3.875 .28125-.0937-4.65625-1.84375-.0625.0312 .875,1.65625 3.59375,6.625 .5625,1.0625 .3125-.0937z" fill="#bf2722"/>
   <path d="m330.03 413.81 1.3438-3.5-0.90625 0.25-20.875 6.0625-1.2812 3.5 0.84375-0.25 20.875-6.0312v-0.0312z" fill="#ee4947"/>
   <path d="m332.78 418.34 3.875 2.2812 0.75-0.21875-0.9375-1.6562-4.2812-7.5-0.59375-1-0.21875 0.0625-1.3438 3.5 0.15625-0.0312 2.5938 4.5625z" fill="#c52724"/>
   <path d="m299.53 428.72-0.9375 3.4062 0.40625-0.125 36.625-11.062 1.0312-0.3125-3.875-2.2812 0.15625 0.28125-33.406 10.094z" fill="#e5504a"/>
   <path d="m285.06 399.22-4.0625-2.125-0.25 0.0625 0.75 1.5625 15.719 32.5 0.5625 1.1562 0.8125-0.25 0.9375-3.4062-0.1875 0.0625-14.281-29.562z" fill="#e6433e"/>
   <path d="m319.47 385.28-0.96875 0.28125-36.094 11.094-1.4062 0.4375 4.0625 2.125-0.0937-0.21875 33.25-10.219 1.25-3.5z" fill="#e5403c"/>
   <path d="m319.47 385.28-1.25 3.5 2.3438 3.9062 4.3438 1.7188-0.125-0.53125-0.625-1.0312-3.9375-6.5938-0.59375-1.0312-0.15625 0.0625z" fill="#c02825"/>
   <path d="m372.25,403.75 1.6875-3.4375-1.0625.21875-19,4.34375-1.9375,3.34375 .0937.15625 1.15625-.25 19.03125-4.375h.0312z" fill="#e23531"/>
   <path d="m375.125,409.125 4.21875,2.46875 .34375-.0625-.875-1.71875-4.25-8.46875-.53125-1.0625-.0937.0312-1.6875,3.4375 .15625-.0312 2.71875,5.40625z" fill="#cd2a25"/>
   <path d="m343.72 416.06-0.21875 0.0625-0.71875 3.5312 0.5625-0.125 34.469-7.5938 1.5312-0.34375-4.2188-2.4688 0.15625 0.28125-31.406 6.9688-0.15625-0.3125z" fill="#ed5955"/>
   <path d="m329.44 386.72-4.2188-1.9062 0.75 1.5938 15.719 32.312 0.53125 1.0625 0.5625-0.125 0.71875-3.5312 0.21875-0.0625-14.281-29.344z" fill="#f45653"/>
   <path d="m341.75 380.72-0.25-0.5-1.1875 0.34375-13.406 3.75-1.7188 0.46875 0.0312 0.0312 4.2188 1.9062 10.094-2.8125 2.2188-3.1875z" fill="#de322e"/>
   <path d="m341.75 380.72-2.2188 3.1875 0.40625-0.125 11.562 23.531 0.4375 0.90625 1.9375-3.3438-0.21875 0.0625-11.594-23.594-0.3125-0.625z" fill="#c62723"/>
   <path d="m387.25,390 1.21875-3.21875-2.1875-4.34375-4.28125-2.71875-.3125.0625 .0937.34375 .75,1.53125 3.75,7.5 .4375.875 .5313-.03125z" fill="#cc2924"/>
   <path d="m388.5625,379.125c-1.53311.009-3.16906.14969-4.875.375l-1.6875.21875 4.28125,2.71875-.0625-.125c.79456-.0611 1.65544-.15274 2.375-.15625 1.37314-.007 2.58967.0651 3.5625.28125s1.67913.56395 2.09375.90625 .56941.65016.625,1.1875c.0293.2834-.0115.3992-.5625.78125s-1.53978.76663-2.5625,1.03125c-1.57533.4076-2.57335.44349-3.25.5l-.0312-.0625-1.2188,3.21875h.46875c0,0 2.38919-.12299 4.8125-.75 1.21166-.31351 2.44548-.73751 3.5-1.46875s2.00193-2.0334 1.84375-3.5625c-.13191-1.27516-.78962-2.42043-1.71875-3.1875s-2.09783-1.21618-3.375-1.5-2.68564-.41517-4.21875-.40625z" fill="#f45b56"/>
   <path d="m394.66 405.69 4.3438 2.4375h0.24995l-0.90625-1.8125-5.0312-9.9688-4.8125-2.8125 1.0312 2 5.125 10.156z" fill="#cc2721"/>
   <path d="m384.22 407.66 0.0312 0.0937-1.6562 3.25 0.90625-0.15625 13.75-2.375 1.9062-0.34375h-0.15625l-4.3438-2.4375 0.0937 0.15625-10.531 1.8125z" fill="#ed524d"/>
   <path d="m365.75 375.72 0.78125 1.6562 15.375 32.625 0.46875 1.0312 0.21875-0.0312 1.6562-3.25-0.0312-0.0937-0.125 0.0312-13.938-29.562-4.4062-2.4062z" fill="#fe7773"/>
   <path d="m365.75 375.72 4.4062 2.4062-0.0625-0.15625c1.128-0.0868 5.0996-0.33756 17.5-2.125 1.6861-0.24304 3.2583-0.39019 4.7188-0.4375 4.3814-0.14194 7.7579 0.56688 10.188 1.9062 3.2394 1.7858 4.9809 4.6332 5.5 8.8438 0.21613 1.7531-0.43524 2.8272-1.8438 3.875s-3.59 1.8302-5.875 2.3438c-4.5699 1.0271-9.375 1-9.375 1l-2.5-0.0312 0.0937 0.1875 4.8125 2.8125-0.0312-0.0625c1.9319-0.0809 4.5722-0.2756 7.6562-0.96875 2.5119-0.56457 5.053-1.4033 7.0312-2.875s3.3776-3.8156 3.0312-6.625c-0.60589-4.9145-2.9894-8.8796-7.0625-11.125-3.0548-1.6841-6.9507-2.4425-11.719-2.2812-1.5893 0.0538-3.2798 0.21179-5.0625 0.46875-13.845 1.9956-19.375 2.375-19.375 2.375l-2.1875 0.125 0.15625 0.34375z" fill="url(#g)"/>
  </g>
  <path d="m663.88 380.99 3.75 7.5s9.125-0.5 8.75-4.125-5.875-4.25-12.5-3.375zm-16-4.25 15.375 32.625 13.75-2.375-6.125-12.125s19.75 0.25 18.625-8.875-8.25-13.625-22.125-11.625-19.5 2.375-19.5 2.375zm-40.554 9.0179 15.714 32.321 34.446-7.6031-4.2671-8.4683-20.357 4.6429-12.143-24.643zm-44.464 12.321 15.714 32.5 36.607-11.071-4.2857-7.5-22.143 6.4286-3.5714-6.6071 21.25-5.8929-3.75-6.7857-20.536 6.25-2.5-5.1786 23.214-6.6071-3.9286-6.6071zm-51.25 18.036 15.179 34.107 13.571-6.0714-6.6071-14.107 15.357-5.1786 6.4286 13.393 13.393-4.2857-14.821-33.036-13.214 4.6429 5 10.893-15 5.7143-5.7143-11.429z" fill="url(#f)"/>
  <path d="m494.97 412.22c-1.6242 45.578 46.186 84.288 106.78 86.469s111.03-32.984 112.66-78.562c0.0556-1.5606 0.0588-3.1129 0-4.6562-3e-3 0.0941 3e-3 0.18708 0 0.28125-1.6242 45.578-52.061 80.775-112.66 78.594-58.646-2.1107-105.31-38.47-106.78-82.125z" fill="url(#b)" filter="url(#i)"/>
  <path d="m470.78 433.34c-0.58965 54.206 56.615 99.897 128.94 102.5 73.162 2.6332 134.07-39.844 136.03-94.875 0.0426-1.1954 0.0445-2.3753 0.0312-3.5625-8e-3 0.52282-0.0126 1.0382-0.0312 1.5625-1.9611 55.031-62.869 97.508-136.03 94.875-71.426-2.5707-128.11-47.179-128.94-100.5z" fill="#353631"/>
 </g>
</svg>
